# Blender v2.78 (sub 0) OBJ File: 'biliardTable.blend'
# www.blender.org
mtllib biliardTable.mtl
o Plane_Plane.002
v -4.312931 -0.270000 2.102535
v 4.312932 -0.270000 2.113188
v -4.344889 -0.270000 -2.123840
v 4.302279 -0.270000 -2.145145
v -4.088957 -0.270000 2.209060
v -4.088957 -0.270000 -2.209060
v 4.056980 -0.270000 2.209060
v 4.056980 -0.270000 -2.209060
v -4.387499 -0.270000 -1.846220
v 4.376847 -0.270000 -1.846220
v -4.088957 -0.270000 -1.846220
v 4.056980 -0.270000 -1.846220
v -4.387499 -0.270000 1.878235
v 4.376847 -0.270000 1.878235
v -4.088957 -0.270000 1.878235
v 4.056980 -0.270000 1.878235
vn 0.0000 1.0000 0.0000
usemtl None
s off
f 12//1 10//1 4//1 8//1
f 9//1 11//1 6//1 3//1
f 11//1 12//1 8//1 6//1
f 15//1 16//1 12//1 11//1
f 13//1 15//1 11//1 9//1
f 16//1 14//1 10//1 12//1
f 7//1 2//1 14//1 16//1
f 1//1 5//1 15//1 13//1
f 5//1 7//1 16//1 15//1
o Cube.007_Cube.009
v -4.968152 0.274108 2.497271
v -4.968152 -0.274111 2.497271
v -4.397906 0.274109 1.884233
v -4.397906 -0.274111 1.884232
v -4.968151 0.274111 -2.451712
v -4.968151 -0.274108 -2.451712
v -4.397906 0.274111 -1.892242
v -4.397906 -0.274108 -1.892242
v -4.757617 0.274108 2.270937
v -4.757617 -0.274111 2.270936
v -4.757617 0.274111 -2.245155
v -4.757617 -0.274108 -2.245156
v -4.757617 0.274108 2.520459
v -4.968152 0.274108 2.746793
v -4.968152 -0.274111 2.746793
v -4.757617 -0.274111 2.520458
v -4.757617 -0.274108 -2.538788
v -4.968151 -0.274108 -2.745344
v -4.968151 0.274111 -2.745344
v -4.757617 0.274111 -2.538787
vn 0.7322 -0.0000 0.6811
vn 1.0000 0.0000 0.0000
vn -1.0000 0.0000 -0.0000
vn 0.0000 1.0000 0.0000
vn -0.0000 -1.0000 -0.0000
vn 0.7003 0.0000 -0.7138
usemtl None
s off
f 25//2 26//2 20//2 19//2
f 19//3 20//3 24//3 23//3
f 27//3 28//3 33//3 36//3
f 21//4 22//4 18//4 17//4
f 25//5 27//5 21//5 17//5
f 28//6 26//6 18//6 22//6
f 24//6 20//6 26//6 28//6
f 19//5 23//5 27//5 25//5
f 23//7 24//7 28//7 27//7
f 26//3 25//3 29//3 32//3
f 30//2 31//2 32//2 29//2
f 25//5 17//5 30//5 29//5
f 17//4 18//4 31//4 30//4
f 18//6 26//6 32//6 31//6
f 36//7 33//7 34//7 35//7
f 21//5 27//5 36//5 35//5
f 28//6 22//6 34//6 33//6
f 22//4 21//4 35//4 34//4
o Cube.006_Cube.008
v 4.944347 -0.274111 2.497271
v 4.944347 0.274108 2.497271
v 4.374102 -0.274111 1.884232
v 4.374102 0.274109 1.884233
v 4.944347 -0.274108 -2.451712
v 4.944347 0.274111 -2.451712
v 4.374102 -0.274108 -1.892242
v 4.374102 0.274111 -1.892242
v 4.725931 -0.274111 2.262464
v 4.725931 0.274108 2.262465
v 4.725931 -0.274108 -2.237424
v 4.725932 0.274111 -2.237423
v 4.725932 0.274111 -2.528224
v 4.944347 0.274111 -2.742513
v 4.944347 -0.274108 -2.742514
v 4.725931 -0.274108 -2.528225
v 4.725931 -0.274111 2.540292
v 4.944347 -0.274111 2.775098
v 4.944347 0.274108 2.775099
v 4.725931 0.274108 2.540292
vn -0.7322 -0.0000 0.6811
vn -1.0000 0.0000 0.0000
vn 0.0000 1.0000 0.0000
vn 1.0000 0.0000 0.0000
vn -0.0000 -1.0000 -0.0000
vn -0.7003 0.0000 -0.7138
usemtl None
s off
f 45//8 46//8 40//8 39//8
f 39//9 40//9 44//9 43//9
f 48//10 42//10 50//10 49//10
f 41//11 42//11 38//11 37//11
f 45//12 47//12 41//12 37//12
f 48//10 46//10 38//10 42//10
f 44//10 40//10 46//10 48//10
f 39//12 43//12 47//12 45//12
f 43//13 44//13 48//13 47//13
f 45//12 37//12 54//12 53//12
f 52//13 49//13 50//13 51//13
f 42//11 41//11 51//11 50//11
f 47//9 48//9 49//9 52//9
f 41//12 47//12 52//12 51//12
f 54//8 55//8 56//8 53//8
f 38//10 46//10 56//10 55//10
f 37//11 38//11 55//11 54//11
f 46//9 45//9 53//9 56//9
o Cube.005_Cube.006
v 4.673062 -0.274111 -2.744455
v 4.673062 0.274108 -2.744455
v 4.060024 -0.274111 -2.174210
v 4.060024 0.274109 -2.174210
v 0.160832 -0.274108 -2.744455
v 0.160832 0.274111 -2.744455
v 0.283549 -0.274108 -2.174210
v 0.283550 0.274111 -2.174210
v 4.445584 -0.274111 -2.532857
v 4.445584 0.274108 -2.532857
v 0.206368 -0.274108 -2.532857
v 0.206369 0.274111 -2.532857
v 4.711638 -0.274111 -2.532857
v 4.939116 -0.274111 -2.744455
v 4.939117 0.274108 -2.744455
v 4.711639 0.274108 -2.532857
vn 0.6811 -0.0000 0.7322
vn 0.0000 0.0000 1.0000
vn -0.9776 0.0000 0.2104
vn 0.0000 0.0000 -1.0000
vn -0.0000 -1.0000 0.0000
vn 0.0000 1.0000 -0.0000
usemtl None
s off
f 65//14 66//14 60//14 59//14
f 59//15 60//15 64//15 63//15
f 67//16 68//16 62//16 61//16
f 61//17 62//17 58//17 57//17
f 65//18 67//18 61//18 57//18
f 68//19 66//19 58//19 62//19
f 64//19 60//19 66//19 68//19
f 59//18 63//18 67//18 65//18
f 63//16 64//16 68//16 67//16
f 65//18 57//18 70//18 69//18
f 70//14 71//14 72//14 69//14
f 58//19 66//19 72//19 71//19
f 57//17 58//17 71//17 70//17
f 66//15 65//15 69//15 72//15
o Cube.004_Cube.005
v 4.673062 -0.274111 -2.744455
v 4.673062 0.274108 -2.744455
v 4.060024 -0.274111 -2.174210
v 4.060024 0.274109 -2.174210
v 0.160832 -0.274108 -2.744455
v 0.160832 0.274111 -2.744455
v 0.283549 -0.274108 -2.174210
v 0.283550 0.274111 -2.174210
vn 0.6811 -0.0000 0.7322
vn 0.0000 0.0000 1.0000
vn -0.9776 0.0000 0.2104
vn 0.0000 0.0000 -1.0000
vn -0.0000 -1.0000 0.0000
vn 0.0000 1.0000 -0.0000
usemtl None
s off
f 73//20 74//20 76//20 75//20
f 75//21 76//21 80//21 79//21
f 79//22 80//22 78//22 77//22
f 77//23 78//23 74//23 73//23
f 75//24 79//24 77//24 73//24
f 80//25 76//25 74//25 78//25
o Cube.003_Cube.004
v -4.695645 0.274110 -2.744456
v -4.695645 -0.274110 -2.744456
v -4.082607 0.274110 -2.174210
v -4.082607 -0.274110 -2.174210
v -0.183416 0.274110 -2.744456
v -0.183416 -0.274110 -2.744456
v -0.306133 0.274110 -2.174210
v -0.306133 -0.274110 -2.174210
v -4.561018 0.274110 -2.619225
v -4.561018 -0.274110 -2.619225
v -0.210365 0.274110 -2.619225
v -0.210365 -0.274110 -2.619225
v 0.322894 -0.274110 -2.619225
v 0.349844 -0.274110 -2.744456
v 0.349844 0.274110 -2.744456
v 0.322894 0.274110 -2.619225
v -4.831772 0.274110 -2.619225
v -4.966400 0.274110 -2.744456
v -4.966400 -0.274110 -2.744456
v -4.831772 -0.274110 -2.619225
vn -0.6811 -0.0000 0.7322
vn 0.0000 0.0000 1.0000
vn 0.0000 -1.0000 0.0000
vn 0.0000 0.0000 -1.0000
vn 0.0000 1.0000 0.0000
vn 0.9776 0.0000 0.2104
usemtl None
s off
f 89//26 90//26 84//26 83//26
f 83//27 84//27 88//27 87//27
f 92//28 86//28 94//28 93//28
f 85//29 86//29 82//29 81//29
f 89//30 91//30 85//30 81//30
f 92//28 90//28 82//28 86//28
f 88//28 84//28 90//28 92//28
f 83//30 87//30 91//30 89//30
f 87//31 88//31 92//31 91//31
f 90//27 89//27 97//27 100//27
f 96//31 93//31 94//31 95//31
f 86//29 85//29 95//29 94//29
f 91//27 92//27 93//27 96//27
f 85//30 91//30 96//30 95//30
f 98//26 99//26 100//26 97//26
f 89//30 81//30 98//30 97//30
f 82//28 90//28 100//28 99//28
f 81//29 82//29 99//29 98//29
o Cube.002_Cube.003
v 4.673062 -0.274111 -2.744455
v 4.673062 0.274108 -2.744455
v 4.060024 -0.274111 -2.174210
v 4.060024 0.274109 -2.174210
v 0.160832 -0.274108 -2.744455
v 0.160832 0.274111 -2.744455
v 0.283549 -0.274108 -2.174210
v 0.283550 0.274111 -2.174210
vn 0.6811 -0.0000 0.7322
vn 0.0000 0.0000 1.0000
vn -0.9776 0.0000 0.2104
vn 0.0000 0.0000 -1.0000
vn -0.0000 -1.0000 0.0000
vn 0.0000 1.0000 -0.0000
usemtl None
s off
f 101//32 102//32 104//32 103//32
f 103//33 104//33 108//33 107//33
f 107//34 108//34 106//34 105//34
f 105//35 106//35 102//35 101//35
f 103//36 107//36 105//36 101//36
f 108//37 104//37 102//37 106//37
o Cube.001_Cube.002
v 4.673062 0.274110 2.768317
v 4.673062 -0.274109 2.768317
v 4.060024 0.274110 2.198071
v 4.060024 -0.274109 2.198071
v 0.160832 0.274109 2.768317
v 0.160832 -0.274110 2.768317
v 0.283549 0.274109 2.198071
v 0.283549 -0.274110 2.198071
v 4.490307 0.274110 2.598319
v 4.490307 -0.274109 2.598319
v 0.197416 0.274109 2.598319
v 0.197416 -0.274110 2.598319
v -0.207585 -0.274110 2.598319
v -0.244168 -0.274110 2.768317
v -0.244168 0.274109 2.768317
v -0.207585 0.274109 2.598319
v 4.751382 0.274110 2.598319
v 4.934137 0.274110 2.768317
v 4.934137 -0.274109 2.768317
v 4.751382 -0.274109 2.598319
vn 0.6811 0.0000 -0.7322
vn 0.0000 0.0000 -1.0000
vn 0.0000 -1.0000 0.0000
vn 0.0000 0.0000 1.0000
vn -0.0000 1.0000 0.0000
vn -0.9776 0.0000 -0.2104
usemtl None
s off
f 117//38 118//38 112//38 111//38
f 111//39 112//39 116//39 115//39
f 120//40 114//40 122//40 121//40
f 113//41 114//41 110//41 109//41
f 117//42 119//42 113//42 109//42
f 120//40 118//40 110//40 114//40
f 116//40 112//40 118//40 120//40
f 111//42 115//42 119//42 117//42
f 115//43 116//43 120//43 119//43
f 117//42 109//42 126//42 125//42
f 124//43 121//43 122//43 123//43
f 114//41 113//41 123//41 122//41
f 119//39 120//39 121//39 124//39
f 113//42 119//42 124//42 123//42
f 126//38 127//38 128//38 125//38
f 110//40 118//40 128//40 127//40
f 109//41 110//41 127//41 126//41
f 118//39 117//39 125//39 128//39
o Cube_Cube.001
v -4.695645 -0.274110 2.768317
v -4.695645 0.274110 2.768317
v -4.082607 -0.274110 2.198071
v -4.082607 0.274110 2.198071
v -0.183416 -0.274110 2.768317
v -0.183416 0.274110 2.768317
v -0.306133 -0.274110 2.198071
v -0.306133 0.274110 2.198071
v -4.453577 -0.274110 2.543146
v -4.453577 0.274110 2.543146
v -0.231873 -0.274110 2.543146
v -0.231873 0.274110 2.543146
v -4.722020 -0.274110 2.543146
v -4.964088 -0.274110 2.768317
v -4.964088 0.274110 2.768317
v -4.722020 0.274110 2.543146
vn -0.6811 0.0000 -0.7322
vn 0.0000 0.0000 -1.0000
vn 0.9776 0.0000 -0.2104
vn 0.0000 0.0000 1.0000
vn 0.0000 -1.0000 0.0000
vn 0.0000 1.0000 0.0000
usemtl None
s off
f 137//44 138//44 132//44 131//44
f 131//45 132//45 136//45 135//45
f 139//46 140//46 134//46 133//46
f 133//47 134//47 130//47 129//47
f 137//48 139//48 133//48 129//48
f 140//49 138//49 130//49 134//49
f 136//49 132//49 138//49 140//49
f 131//48 135//48 139//48 137//48
f 135//46 136//46 140//46 139//46
f 138//45 137//45 141//45 144//45
f 142//44 143//44 144//44 141//44
f 137//48 129//48 142//48 141//48
f 129//47 130//47 143//47 142//47
f 130//49 138//49 144//49 143//49
